<svg width="93" height="37" viewBox="0 0 93 37" fill="none" xmlns="http://www.w3.org/2000/svg">
<path d="M15.0498 10.8302H11.3121L11.2921 8.53768H14.3222C14.8671 8.53768 15.3023 8.47788 15.6279 8.35827C15.9536 8.23202 16.1894 8.04928 16.3356 7.81006C16.4885 7.57085 16.5649 7.27182 16.5649 6.913C16.5649 6.50101 16.4885 6.16876 16.3356 5.91626C16.1828 5.66375 15.9403 5.48101 15.608 5.36805C15.2824 5.24844 14.8605 5.18864 14.3422 5.18864H12.6278V17H9.12921V2.48747H14.3422C15.2392 2.48747 16.0399 2.57054 16.7443 2.73666C17.4487 2.89614 18.0467 3.142 18.5384 3.47425C19.0368 3.80649 19.4156 4.22512 19.6747 4.73014C19.9339 5.22851 20.0634 5.81658 20.0634 6.49437C20.0634 7.08577 19.9372 7.64062 19.6847 8.15892C19.4322 8.67723 19.0102 9.09918 18.4188 9.42478C17.8341 9.74374 17.0334 9.90986 16.0167 9.92315L15.0498 10.8302ZM14.9103 17H10.4648L11.6609 14.3088H14.9103C15.3887 14.3088 15.7708 14.2357 16.0565 14.0895C16.3489 13.9367 16.5582 13.7373 16.6845 13.4915C16.8174 13.239 16.8838 12.9599 16.8838 12.6542C16.8838 12.2821 16.8207 11.9598 16.6945 11.6874C16.5749 11.4149 16.3821 11.2056 16.1164 11.0594C15.8506 10.9066 15.4951 10.8302 15.0498 10.8302H12.1095L12.1294 8.53768H15.6479L16.4652 9.45468C17.4354 9.41481 18.2029 9.55103 18.7677 9.86335C19.3391 10.1757 19.7478 10.5876 19.9937 11.0993C20.2395 11.611 20.3625 12.1459 20.3625 12.7041C20.3625 13.6543 20.1565 14.4483 19.7445 15.0863C19.3391 15.7242 18.7311 16.2026 17.9204 16.5216C17.1098 16.8405 16.1064 17 14.9103 17ZM22.3061 2.48747H28.0174C29.1338 2.48747 30.1039 2.6536 30.9279 2.98584C31.7519 3.31809 32.3865 3.80982 32.8317 4.46102C33.2835 5.11222 33.5095 5.91626 33.5095 6.87313C33.5095 7.70374 33.3799 8.39814 33.1207 8.95631C32.8616 9.51449 32.4994 9.97631 32.0343 10.3418C31.5758 10.7006 31.0409 10.9963 30.4295 11.2289L29.2833 11.8768H24.489L24.469 9.1756H28.0174C28.4626 9.1756 28.8314 9.09586 29.1238 8.93638C29.4162 8.7769 29.6355 8.55097 29.7816 8.2586C29.9345 7.95957 30.0109 7.60407 30.0109 7.19208C30.0109 6.77345 29.9345 6.41463 29.7816 6.11561C29.6288 5.81658 29.4029 5.58733 29.1039 5.42786C28.8115 5.26838 28.4493 5.18864 28.0174 5.18864H25.8047V17H22.3061V2.48747ZM30.2501 17L27.0406 10.581L30.7485 10.5611L33.9979 16.8505V17H30.2501ZM43.4968 2.48747H46.9953V11.9665C46.9953 13.0961 46.7594 14.053 46.2877 14.8371C45.8159 15.6145 45.1547 16.2026 44.3041 16.6013C43.4536 17 42.4535 17.1993 41.304 17.1993C40.1677 17.1993 39.1676 17 38.3038 16.6013C37.4466 16.2026 36.7754 15.6145 36.2904 14.8371C35.8119 14.053 35.5727 13.0961 35.5727 11.9665V2.48747H39.0812V11.9665C39.0812 12.5645 39.1676 13.0529 39.3404 13.4317C39.5131 13.8038 39.7657 14.0762 40.0979 14.249C40.4301 14.4218 40.8322 14.5082 41.304 14.5082C41.7824 14.5082 42.1844 14.4218 42.51 14.249C42.8356 14.0762 43.0815 13.8038 43.2476 13.4317C43.4137 13.0529 43.4968 12.5645 43.4968 11.9665V2.48747ZM61.3185 2.48747V17H57.8299L52.6967 7.96954V17H49.1981V2.48747H52.6967L57.8299 11.5179V2.48747H61.3185ZM75.8111 9.45468V10.0428C75.8111 11.1525 75.6549 12.1492 75.3426 13.033C75.0369 13.9101 74.6017 14.661 74.0369 15.2856C73.4721 15.9036 72.8042 16.3787 72.0334 16.7109C71.2626 17.0365 70.4121 17.1993 69.4818 17.1993C68.5448 17.1993 67.6876 17.0365 66.9102 16.7109C66.1394 16.3787 65.4682 15.9036 64.8968 15.2856C64.332 14.661 63.8934 13.9101 63.5811 13.033C63.2754 12.1492 63.1226 11.1525 63.1226 10.0428V9.45468C63.1226 8.34498 63.2754 7.34824 63.5811 6.46446C63.8934 5.58069 64.3286 4.82981 64.8868 4.21183C65.4516 3.58721 66.1194 3.1121 66.8903 2.7865C67.6677 2.45425 68.5249 2.28813 69.4618 2.28813C70.3921 2.28813 71.2427 2.45425 72.0135 2.7865C72.791 3.1121 73.4621 3.58721 74.0269 4.21183C74.5917 4.82981 75.0303 5.58069 75.3426 6.46446C75.6549 7.34824 75.8111 8.34498 75.8111 9.45468ZM72.2627 10.0428V9.43475C72.2627 8.7171 72.1996 8.08583 72.0733 7.54094C71.9537 6.98941 71.7743 6.52759 71.5351 6.15548C71.2958 5.78336 71.0001 5.50427 70.648 5.31821C70.3024 5.12551 69.9071 5.02916 69.4618 5.02916C68.9967 5.02916 68.5914 5.12551 68.2458 5.31821C67.9003 5.50427 67.6112 5.78336 67.3787 6.15548C67.1461 6.52759 66.97 6.98941 66.8504 7.54094C66.7374 8.08583 66.6809 8.7171 66.6809 9.43475V10.0428C66.6809 10.7538 66.7374 11.385 66.8504 11.9366C66.97 12.4814 67.1461 12.9433 67.3787 13.322C67.6179 13.7008 67.9103 13.9865 68.2558 14.1792C68.608 14.3719 69.0166 14.4683 69.4818 14.4683C69.927 14.4683 70.3224 14.3719 70.6679 14.1792C71.0134 13.9865 71.3025 13.7008 71.5351 13.322C71.7743 12.9433 71.9537 12.4814 72.0733 11.9366C72.1996 11.385 72.2627 10.7538 72.2627 10.0428ZM21.0004 28.2454V34.2059C20.7545 34.4783 20.3758 34.7707 19.8641 35.083C19.3591 35.3887 18.7212 35.6511 17.9504 35.8704C17.1795 36.0897 16.2725 36.1993 15.2293 36.1993C14.2657 36.1993 13.3919 36.0465 12.6078 35.7408C11.8237 35.4285 11.1493 34.9734 10.5844 34.3753C10.0263 33.7706 9.59435 33.033 9.28869 32.1626C8.98966 31.2854 8.84015 30.282 8.84015 29.1524V28.345C8.84015 27.2154 8.99299 26.212 9.29865 25.3349C9.60432 24.4578 10.0329 23.7202 10.5844 23.1221C11.1426 22.5174 11.7971 22.0589 12.548 21.7466C13.3055 21.4343 14.1362 21.2782 15.0399 21.2782C16.3755 21.2782 17.4619 21.4908 18.2992 21.9161C19.1365 22.3347 19.7711 22.9161 20.203 23.6604C20.6349 24.398 20.8974 25.2518 20.9904 26.222H17.6314C17.5649 25.7436 17.4387 25.3382 17.2526 25.006C17.0732 24.6671 16.8141 24.4112 16.4752 24.2385C16.1363 24.0591 15.6977 23.9694 15.1595 23.9694C14.7409 23.9694 14.3588 24.0591 14.0132 24.2385C13.6743 24.4179 13.3853 24.6903 13.1461 25.0558C12.9069 25.4146 12.7208 25.8665 12.5879 26.4114C12.4616 26.9563 12.3985 27.5942 12.3985 28.3251V29.1524C12.3985 29.8767 12.4583 30.5113 12.5779 31.0562C12.7042 31.6011 12.8902 32.0562 13.1361 32.4217C13.3886 32.7805 13.7076 33.053 14.093 33.239C14.485 33.4184 14.9468 33.5082 15.4784 33.5082C15.8506 33.5082 16.1695 33.4782 16.4353 33.4184C16.7011 33.352 16.9204 33.2723 17.0932 33.1792C17.2726 33.0796 17.4088 32.9865 17.5018 32.9001V30.6475H15.0698V28.2454H21.0004ZM33.031 33.3088V36H25.2963V33.3088H33.031ZM26.5422 21.4875V36H23.0437V21.4875H26.5422ZM32.0343 27.2486V29.8501H25.2963V27.2486H32.0343ZM33.0609 21.4875V24.1886H25.2963V21.4875H33.0609ZM46.5867 21.4875V36H43.0981L37.9649 26.9695V36H34.4663V21.4875H37.9649L43.0981 30.5179V21.4875H46.5867ZM55.1287 24.5375L51.5903 36H47.8326L53.1652 21.4875H55.5474L55.1287 24.5375ZM58.0591 36L54.5108 24.5375L54.0523 21.4875H56.4644L61.8268 36H58.0591ZM57.9196 30.5877V33.2889H50.474V30.5877H57.9196ZM62.8933 21.4875H68.6046C69.721 21.4875 70.6912 21.6536 71.5151 21.9858C72.3391 22.3181 72.9737 22.8098 73.4189 23.461C73.8708 24.1122 74.0967 24.9163 74.0967 25.8731C74.0967 26.7037 73.9671 27.3981 73.708 27.9563C73.4488 28.5145 73.0867 28.9763 72.6215 29.3418C72.163 29.7006 71.6281 29.9963 71.0168 30.2289L69.8705 30.8768H65.0762L65.0563 28.1756H68.6046C69.0499 28.1756 69.4187 28.0959 69.711 27.9364C70.0034 27.7769 70.2227 27.551 70.3689 27.2586C70.5217 26.9596 70.5981 26.6041 70.5981 26.1921C70.5981 25.7735 70.5217 25.4146 70.3689 25.1156C70.216 24.8166 69.9901 24.5873 69.6911 24.4279C69.3987 24.2684 69.0366 24.1886 68.6046 24.1886H66.3919V36H62.8933V21.4875ZM70.8373 36L67.6278 29.581L71.3357 29.5611L74.5851 35.8505V36H70.8373ZM88.4896 28.4547V29.0428C88.4896 30.1525 88.3334 31.1492 88.0211 32.033C87.7155 32.9101 87.2802 33.661 86.7154 34.2856C86.1506 34.9036 85.4828 35.3787 84.712 35.7109C83.9411 36.0365 83.0906 36.1993 82.1603 36.1993C81.2234 36.1993 80.3662 36.0365 79.5887 35.7109C78.8179 35.3787 78.1468 34.9036 77.5753 34.2856C77.0105 33.661 76.5719 32.9101 76.2596 32.033C75.9539 31.1492 75.8011 30.1525 75.8011 29.0428V28.4547C75.8011 27.345 75.9539 26.3482 76.2596 25.4645C76.5719 24.5807 77.0072 23.8298 77.5653 23.2118C78.1302 22.5872 78.798 22.1121 79.5688 21.7865C80.3462 21.4542 81.2034 21.2881 82.1404 21.2881C83.0707 21.2881 83.9212 21.4542 84.692 21.7865C85.4695 22.1121 86.1406 22.5872 86.7054 23.2118C87.2703 23.8298 87.7088 24.5807 88.0211 25.4645C88.3334 26.3482 88.4896 27.345 88.4896 28.4547ZM84.9412 29.0428V28.4347C84.9412 27.7171 84.8781 27.0858 84.7518 26.5409C84.6322 25.9894 84.4528 25.5276 84.2136 25.1555C83.9744 24.7834 83.6787 24.5043 83.3265 24.3182C82.981 24.1255 82.5856 24.0292 82.1404 24.0292C81.6752 24.0292 81.2699 24.1255 80.9244 24.3182C80.5788 24.5043 80.2898 24.7834 80.0572 25.1555C79.8246 25.5276 79.6485 25.9894 79.5289 26.5409C79.416 27.0858 79.3595 27.7171 79.3595 28.4347V29.0428C79.3595 29.7538 79.416 30.385 79.5289 30.9366C79.6485 31.4814 79.8246 31.9433 80.0572 32.322C80.2964 32.7008 80.5888 32.9865 80.9343 33.1792C81.2865 33.3719 81.6952 33.4683 82.1603 33.4683C82.6055 33.4683 83.0009 33.3719 83.3464 33.1792C83.692 32.9865 83.981 32.7008 84.2136 32.322C84.4528 31.9433 84.6322 31.4814 84.7518 30.9366C84.8781 30.385 84.9412 29.7538 84.9412 29.0428Z" fill="#D1D5DB"/>
<path d="M3 1.7767V35.9318" stroke="url(#paint0_linear_50_210)" stroke-width="5"/>
<defs>
<linearGradient id="paint0_linear_50_210" x1="3" y1="34.2784" x2="-5.92984" y2="1.30512" gradientUnits="userSpaceOnUse">
<stop stop-color="#4BABF0"/>
<stop offset="0.245573" stop-color="#6D65E1"/>
<stop offset="0.496174" stop-color="#A556C6"/>
<stop offset="0.746775" stop-color="#D84BAC"/>
<stop offset="1" stop-color="#FA765C"/>
</linearGradient>
</defs>
</svg>
