<svg width="58" height="43" viewBox="0 0 58 43" fill="none" xmlns="http://www.w3.org/2000/svg">
<path d="M32.5603 6.44614C33.4572 8.30455 33.9274 10.34 33.9363 12.4035C33.9452 14.467 33.4927 16.5065 32.6118 18.3726C32.1412 19.3376 31.5146 20.2184 30.7571 20.9794C31.9101 21.8951 32.8417 23.0591 33.4824 24.3847C33.7015 24.8386 33.8942 25.3047 34.0594 25.7808C33.9071 24.5693 33.8331 23.3493 33.8379 22.1282V19.8048C33.8093 18.0001 33.9821 16.1978 34.3531 14.4314C34.6458 13.0846 35.1686 11.7984 35.8986 10.6294C36.5007 9.66744 37.3398 8.87626 38.3354 8.3317C39.3296 7.8225 40.4333 7.56426 41.5502 7.57952C42.8243 7.52635 44.0921 7.78453 45.244 8.3317C46.1803 8.8022 46.9446 9.55567 47.4284 10.4851C47.991 11.548 48.3509 12.7063 48.4896 13.9008H57.9174C57.7229 11.3628 56.9681 8.89952 55.7073 6.68827C54.4532 4.5616 52.593 2.8575 50.3649 1.79406C48.0157 0.598843 44.9658 0.00122866 41.2153 0.00122866C38.8206 -0.0266953 36.4442 0.421608 34.2243 1.32009C32.8639 1.88401 31.5907 2.63858 30.4429 3.56113C31.2921 4.40879 32.0062 5.38179 32.5603 6.44614Z" fill="#151D2B"/>
<path d="M41.3442 19.5933V26.337H48.1704V32.684C47.8195 32.9907 47.4339 33.2552 47.0215 33.4722C46.4357 33.7684 45.8165 33.9932 45.1772 34.1419C44.2924 34.322 43.3908 34.4067 42.4879 34.3944C41.152 34.4252 39.8252 34.1668 38.5983 33.6371C37.5208 33.1172 36.5962 32.3274 35.9142 31.3445C35.4003 30.5609 34.9981 29.7096 34.719 28.815C34.7551 29.222 34.7809 29.629 34.7809 30.0411C34.8666 32.8809 34.1237 35.6842 32.6428 38.1088C32.3778 38.5155 32.0888 38.906 31.7773 39.2783C32.6196 39.8159 33.5115 40.2714 34.4408 40.6384C36.7908 41.5248 39.2863 41.9617 41.7976 41.9263C44.3745 41.9698 46.9452 41.6595 49.4377 41.0042C51.3175 40.5047 53.1239 39.7617 54.8111 38.794C55.9819 38.1232 57.0549 37.2946 58 36.3315V19.5933H41.3442Z" fill="#151D2B"/>
<path d="M31.1693 25.5133C30.4222 24.0195 29.2161 22.8044 27.7279 22.0461C27.0427 21.6649 24.2453 21.5309 21.0718 21.4949C23.7765 21.3764 26.0845 21.1754 26.7388 20.8148C28.2659 20.0321 29.5078 18.7883 30.2884 17.2601C30.9953 15.7537 31.3596 14.1094 31.3552 12.4454C31.3507 10.7814 30.9776 9.13908 30.2626 7.63652C29.5222 6.20592 28.4235 4.99179 27.0736 4.11269C25.5367 3.11891 23.828 2.42009 22.0352 2.05197C19.8236 1.55872 17.5623 1.32359 15.2966 1.35131H0.670654V42.0866H16.8988C20.2578 42.0866 23.0741 41.6384 25.3478 40.742C27.4446 39.9861 29.2384 38.5683 30.4584 36.703C31.6193 34.9136 32.198 32.6811 32.1945 30.0056C32.1974 28.4499 31.8468 26.9138 31.1693 25.5133ZM10.49 8.92447H15.3069C16.5109 8.89112 17.7117 9.0654 18.8565 9.43965C19.7066 9.69088 20.438 10.2394 20.9172 10.9852C21.3814 11.8421 21.604 12.809 21.5612 13.7826C21.5936 14.6668 21.37 15.5416 20.9172 16.3019C20.445 17.0241 19.7451 17.5681 18.9286 17.8474C17.7459 18.2265 16.5071 18.4008 15.2657 18.3626H10.5054L10.49 8.92447ZM21.8806 32.2312C21.4824 32.9595 20.8663 33.545 20.1187 33.9056C19.1084 34.3602 18.0057 34.572 16.8988 34.5238H10.49V24.7611C11.7419 24.7611 19.5366 24.9723 20.2784 25.3999C21.0052 25.7865 21.5778 26.41 21.9012 27.167C22.2687 28.0218 22.4446 28.9468 22.4164 29.8768C22.4325 30.6936 22.2486 31.5019 21.8806 32.2312Z" fill="#151D2B"/>
</svg>
