<svg width="81" height="35" viewBox="0 0 81 35" fill="none" xmlns="http://www.w3.org/2000/svg">
<path d="M7.04984 8.83018H3.31207L3.29213 6.53768H6.32222C6.8671 6.53768 7.30235 6.47788 7.62795 6.35827C7.95355 6.23202 8.18945 6.04928 8.33563 5.81006C8.48847 5.57085 8.56488 5.27182 8.56488 4.913C8.56488 4.50101 8.48847 4.16876 8.33563 3.91626C8.1828 3.66375 7.94026 3.48101 7.60801 3.36805C7.28241 3.24844 6.86046 3.18864 6.34216 3.18864H4.62776V15H1.12921V0.487474H6.34216C7.23922 0.487474 8.03993 0.570536 8.7443 0.736659C9.44866 0.896137 10.0467 1.142 10.5384 1.47425C11.0368 1.80649 11.4156 2.22512 11.6747 2.73014C11.9339 3.22851 12.0634 3.81658 12.0634 4.49437C12.0634 5.08577 11.9372 5.64062 11.6847 6.15892C11.4322 6.67723 11.0102 7.09918 10.4188 7.42478C9.83407 7.74374 9.03335 7.90986 8.01668 7.92315L7.04984 8.83018ZM6.9103 15H2.46484L3.66093 12.3088H6.9103C7.38873 12.3088 7.77081 12.2357 8.05655 12.0895C8.34892 11.9367 8.55824 11.7373 8.68449 11.4915C8.81739 11.239 8.88384 10.9599 8.88384 10.6542C8.88384 10.2821 8.82071 9.95982 8.69446 9.68738C8.57485 9.41494 8.38215 9.20562 8.11635 9.05943C7.85055 8.9066 7.49505 8.83018 7.04984 8.83018H4.10946L4.12939 6.53768H7.64788L8.46521 7.45468C9.43537 7.41481 10.2029 7.55103 10.7677 7.86335C11.3391 8.17566 11.7478 8.58764 11.9937 9.0993C12.2395 9.61096 12.3625 10.1459 12.3625 10.7041C12.3625 11.6543 12.1565 12.4483 11.7445 13.0863C11.3391 13.7242 10.7311 14.2026 9.92045 14.5216C9.10977 14.8405 8.10638 15 6.9103 15ZM14.3061 0.487474H20.0174C21.1338 0.487474 22.1039 0.653597 22.9279 0.985844C23.7519 1.31809 24.3865 1.80982 24.8317 2.46102C25.2835 3.11222 25.5095 3.91626 25.5095 4.87313C25.5095 5.70374 25.3799 6.39814 25.1207 6.95631C24.8616 7.51449 24.4994 7.97631 24.0343 8.34178C23.5758 8.70061 23.0409 8.99631 22.4295 9.22888L21.2833 9.87676H16.489L16.469 7.1756H20.0174C20.4626 7.1756 20.8314 7.09586 21.1238 6.93638C21.4162 6.7769 21.6355 6.55097 21.7816 6.2586C21.9345 5.95957 22.0109 5.60407 22.0109 5.19208C22.0109 4.77345 21.9345 4.41463 21.7816 4.11561C21.6288 3.81658 21.4029 3.58733 21.1039 3.42786C20.8115 3.26838 20.4493 3.18864 20.0174 3.18864H17.8047V15H14.3061V0.487474ZM22.2501 15L19.0406 8.581L22.7485 8.56106L25.9979 14.8505V15H22.2501ZM35.4968 0.487474H38.9953V9.96647C38.9953 11.0961 38.7594 12.053 38.2877 12.8371C37.8159 13.6145 37.1547 14.2026 36.3041 14.6013C35.4536 15 34.4535 15.1993 33.304 15.1993C32.1677 15.1993 31.1676 15 30.3038 14.6013C29.4466 14.2026 28.7754 13.6145 28.2904 12.8371C27.8119 12.053 27.5727 11.0961 27.5727 9.96647V0.487474H31.0812V9.96647C31.0812 10.5645 31.1676 11.0529 31.3404 11.4317C31.5131 11.8038 31.7657 12.0762 32.0979 12.249C32.4301 12.4218 32.8322 12.5082 33.304 12.5082C33.7824 12.5082 34.1844 12.4218 34.51 12.249C34.8356 12.0762 35.0815 11.8038 35.2476 11.4317C35.4137 11.0529 35.4968 10.5645 35.4968 9.96647V0.487474ZM53.3185 0.487474V15H49.8299L44.6967 5.96954V15H41.1981V0.487474H44.6967L49.8299 9.51793V0.487474H53.3185ZM67.8111 7.45468V8.04276C67.8111 9.15246 67.6549 10.1492 67.3426 11.033C67.0369 11.9101 66.6017 12.661 66.0369 13.2856C65.4721 13.9036 64.8042 14.3787 64.0334 14.7109C63.2626 15.0365 62.4121 15.1993 61.4818 15.1993C60.5448 15.1993 59.6876 15.0365 58.9102 14.7109C58.1394 14.3787 57.4682 13.9036 56.8968 13.2856C56.332 12.661 55.8934 11.9101 55.5811 11.033C55.2754 10.1492 55.1226 9.15246 55.1226 8.04276V7.45468C55.1226 6.34498 55.2754 5.34824 55.5811 4.46446C55.8934 3.58069 56.3286 2.82981 56.8868 2.21183C57.4516 1.58721 58.1194 1.1121 58.8903 0.786496C59.6677 0.454249 60.5249 0.288126 61.4618 0.288126C62.3921 0.288126 63.2427 0.454249 64.0135 0.786496C64.791 1.1121 65.4621 1.58721 66.0269 2.21183C66.5917 2.82981 67.0303 3.58069 67.3426 4.46446C67.6549 5.34824 67.8111 6.34498 67.8111 7.45468ZM64.2627 8.04276V7.43475C64.2627 6.7171 64.1996 6.08583 64.0733 5.54094C63.9537 4.98941 63.7743 4.52759 63.5351 4.15548C63.2958 3.78336 63.0001 3.50427 62.648 3.31821C62.3024 3.12551 61.9071 3.02916 61.4618 3.02916C60.9967 3.02916 60.5914 3.12551 60.2458 3.31821C59.9003 3.50427 59.6112 3.78336 59.3787 4.15548C59.1461 4.52759 58.97 4.98941 58.8504 5.54094C58.7374 6.08583 58.6809 6.7171 58.6809 7.43475V8.04276C58.6809 8.75377 58.7374 9.38503 58.8504 9.93656C58.97 10.4814 59.1461 10.9433 59.3787 11.322C59.6179 11.7008 59.9103 11.9865 60.2558 12.1792C60.608 12.3719 61.0166 12.4683 61.4818 12.4683C61.927 12.4683 62.3224 12.3719 62.6679 12.1792C63.0134 11.9865 63.3025 11.7008 63.5351 11.322C63.7743 10.9433 63.9537 10.4814 64.0733 9.93656C64.1996 9.38503 64.2627 8.75377 64.2627 8.04276ZM13.0004 26.2454V32.2059C12.7545 32.4783 12.3758 32.7707 11.8641 33.083C11.3591 33.3887 10.7212 33.6511 9.95035 33.8704C9.17954 34.0897 8.27251 34.1993 7.22925 34.1993C6.26574 34.1993 5.39193 34.0465 4.60783 33.7408C3.82373 33.4285 3.14927 32.9734 2.58445 32.3753C2.02627 31.7706 1.59435 31.033 1.28869 30.1626C0.989664 29.2854 0.840153 28.282 0.840153 27.1524V26.345C0.840153 25.2154 0.992987 24.212 1.29865 23.3349C1.60432 22.4578 2.03292 21.7202 2.58445 21.1221C3.14262 20.5174 3.79715 20.0589 4.54802 19.7466C5.30555 19.4343 6.13616 19.2782 7.03987 19.2782C8.3755 19.2782 9.46195 19.4908 10.2992 19.9161C11.1365 20.3347 11.7711 20.9161 12.203 21.6604C12.6349 22.398 12.8974 23.2518 12.9904 24.222H9.6314C9.56495 23.7436 9.43869 23.3382 9.25263 23.006C9.07322 22.6671 8.81407 22.4112 8.47518 22.2385C8.13629 22.0591 7.69772 21.9694 7.15948 21.9694C6.74085 21.9694 6.35877 22.0591 6.01323 22.2385C5.67434 22.4179 5.38529 22.6903 5.14607 23.0558C4.90685 23.4146 4.72079 23.8665 4.58789 24.4114C4.46164 24.9563 4.39851 25.5942 4.39851 26.3251V27.1524C4.39851 27.8767 4.45832 28.5113 4.57793 29.0562C4.70418 29.6011 4.89024 30.0562 5.1361 30.4217C5.38861 30.7805 5.70756 31.053 6.09297 31.239C6.48502 31.4184 6.94684 31.5082 7.47844 31.5082C7.85055 31.5082 8.16951 31.4782 8.43531 31.4184C8.70111 31.352 8.92039 31.2723 9.09316 31.1792C9.27257 31.0796 9.40879 30.9865 9.50182 30.9001V28.6475H7.06977V26.2454H13.0004ZM25.031 31.3088V34H17.2963V31.3088H25.031ZM18.5422 19.4875V34H15.0437V19.4875H18.5422ZM24.0343 25.2486V27.8501H17.2963V25.2486H24.0343ZM25.0609 19.4875V22.1886H17.2963V19.4875H25.0609ZM38.5867 19.4875V34H35.0981L29.9649 24.9695V34H26.4663V19.4875H29.9649L35.0981 28.5179V19.4875H38.5867ZM47.1287 22.5375L43.5903 34H39.8326L45.1652 19.4875H47.5474L47.1287 22.5375ZM50.0591 34L46.5108 22.5375L46.0523 19.4875H48.4644L53.8268 34H50.0591ZM49.9196 28.5877V31.2889H42.474V28.5877H49.9196ZM54.8933 19.4875H60.6046C61.721 19.4875 62.6912 19.6536 63.5151 19.9858C64.3391 20.3181 64.9737 20.8098 65.4189 21.461C65.8708 22.1122 66.0967 22.9163 66.0967 23.8731C66.0967 24.7037 65.9671 25.3981 65.708 25.9563C65.4488 26.5145 65.0867 26.9763 64.6215 27.3418C64.163 27.7006 63.6281 27.9963 63.0168 28.2289L61.8705 28.8768H57.0762L57.0563 26.1756H60.6046C61.0499 26.1756 61.4187 26.0959 61.711 25.9364C62.0034 25.7769 62.2227 25.551 62.3689 25.2586C62.5217 24.9596 62.5981 24.6041 62.5981 24.1921C62.5981 23.7735 62.5217 23.4146 62.3689 23.1156C62.216 22.8166 61.9901 22.5873 61.6911 22.4279C61.3987 22.2684 61.0366 22.1886 60.6046 22.1886H58.3919V34H54.8933V19.4875ZM62.8373 34L59.6278 27.581L63.3357 27.5611L66.5851 33.8505V34H62.8373ZM80.4896 26.4547V27.0428C80.4896 28.1525 80.3334 29.1492 80.0211 30.033C79.7155 30.9101 79.2802 31.661 78.7154 32.2856C78.1506 32.9036 77.4828 33.3787 76.712 33.7109C75.9411 34.0365 75.0906 34.1993 74.1603 34.1993C73.2234 34.1993 72.3662 34.0365 71.5887 33.7109C70.8179 33.3787 70.1468 32.9036 69.5753 32.2856C69.0105 31.661 68.5719 30.9101 68.2596 30.033C67.9539 29.1492 67.8011 28.1525 67.8011 27.0428V26.4547C67.8011 25.345 67.9539 24.3482 68.2596 23.4645C68.5719 22.5807 69.0072 21.8298 69.5653 21.2118C70.1302 20.5872 70.798 20.1121 71.5688 19.7865C72.3462 19.4542 73.2034 19.2881 74.1404 19.2881C75.0707 19.2881 75.9212 19.4542 76.692 19.7865C77.4695 20.1121 78.1406 20.5872 78.7054 21.2118C79.2703 21.8298 79.7088 22.5807 80.0211 23.4645C80.3334 24.3482 80.4896 25.345 80.4896 26.4547ZM76.9412 27.0428V26.4347C76.9412 25.7171 76.8781 25.0858 76.7518 24.5409C76.6322 23.9894 76.4528 23.5276 76.2136 23.1555C75.9744 22.7834 75.6787 22.5043 75.3265 22.3182C74.981 22.1255 74.5856 22.0292 74.1404 22.0292C73.6752 22.0292 73.2699 22.1255 72.9244 22.3182C72.5788 22.5043 72.2898 22.7834 72.0572 23.1555C71.8246 23.5276 71.6485 23.9894 71.5289 24.5409C71.416 25.0858 71.3595 25.7171 71.3595 26.4347V27.0428C71.3595 27.7538 71.416 28.385 71.5289 28.9366C71.6485 29.4814 71.8246 29.9433 72.0572 30.322C72.2964 30.7008 72.5888 30.9865 72.9343 31.1792C73.2865 31.3719 73.6952 31.4683 74.1603 31.4683C74.6055 31.4683 75.0009 31.3719 75.3464 31.1792C75.692 30.9865 75.981 30.7008 76.2136 30.322C76.4528 29.9433 76.6322 29.4814 76.7518 28.9366C76.8781 28.385 76.9412 27.7538 76.9412 27.0428Z" fill="#D1D5DB"/>
</svg>
