<svg width="76" height="43" viewBox="0 0 76 43" fill="none" xmlns="http://www.w3.org/2000/svg">
<path d="M49.5671 6.44703C50.4642 8.30569 50.9345 10.3414 50.9434 12.4052C50.9523 14.469 50.4997 16.5087 49.6187 18.3751C49.148 19.3403 48.5213 20.2212 47.7638 20.9823C48.9169 21.8981 49.8486 23.0623 50.4894 24.3881C50.7086 24.842 50.9013 25.3082 51.0665 25.7844C50.9142 24.5727 50.8402 23.3525 50.845 22.1313V19.8075C50.8164 18.0026 50.9892 16.2001 51.3602 14.4334C51.653 13.0864 52.1759 11.8001 52.906 10.6309C53.5081 9.66877 54.3473 8.87749 55.3431 8.33285C56.3374 7.82358 57.4413 7.56531 58.5583 7.58057C59.8326 7.52739 61.1006 7.7856 62.2526 8.33285C63.1891 8.80342 63.9534 9.55699 64.4373 10.4866C65 11.5496 65.3599 12.708 65.4987 13.9027H74.9278C74.7333 11.3644 73.9784 8.90075 72.7174 6.6892C71.4631 4.56223 69.6027 2.8579 67.3742 1.79431C65.0247 0.598926 61.9744 0.00122883 58.2234 0.00122883C55.8283 -0.026699 53.4516 0.421667 51.2314 1.32027C49.8709 1.88427 48.5974 2.63895 47.4495 3.56162C48.2988 4.4094 49.013 5.38254 49.5671 6.44703Z" fill="#151D2B"/>
<path d="M58.3523 19.5962V26.3408H65.1794V32.6887C64.8284 32.9954 64.4428 33.26 64.0304 33.4771C63.4445 33.7733 62.8252 33.9981 62.1858 34.1469C61.3008 34.327 60.3991 34.4117 59.4961 34.3994C58.16 34.4301 56.833 34.1718 55.606 33.642C54.5284 33.122 53.6036 32.3321 52.9215 31.3491C52.4075 30.5654 52.0052 29.7139 51.7261 28.8192C51.7622 29.2262 51.788 29.6333 51.788 30.0455C51.8737 32.8857 51.1307 35.6894 49.6497 38.1143V38.1143C49.3846 38.521 49.0955 38.9116 48.7841 39.2839C49.6264 39.8216 50.5185 40.2772 51.4479 40.6442C53.7982 41.5307 56.2941 41.9677 58.8057 41.9323C61.383 41.9758 63.954 41.6654 66.4469 41.01C68.3269 40.5106 70.1336 39.7674 71.821 38.7996C72.9919 38.1287 74.0651 37.2999 75.0104 36.3367V19.5962H58.3523Z" fill="#151D2B"/>
<path d="M48.176 25.5166C47.4287 24.0226 46.2225 22.8074 44.7341 22.049C44.0488 21.6677 41.251 21.5337 38.0771 21.4976C40.7821 21.3791 43.0905 21.1782 43.7448 20.8175C45.2722 20.0346 46.5143 18.7908 47.2949 17.2623C48.002 15.7557 48.3663 14.1112 48.3619 12.4469C48.3574 10.7827 47.9842 9.14016 47.2691 7.63739C46.5286 6.20659 45.4297 4.99229 44.0797 4.11307C42.5425 3.11916 40.8337 2.42024 39.0406 2.05206C36.8287 1.55875 34.5671 1.32359 32.3011 1.35131H17.6731V42.0923H33.9035C37.263 42.0923 40.0797 41.644 42.3536 40.7475C44.4507 39.9914 46.2448 38.5735 47.4649 36.7079C48.626 34.9182 49.2048 32.6855 49.2013 30.0096C49.2042 28.4536 48.8536 26.9173 48.176 25.5166V25.5166ZM27.4938 8.92552H32.3114C33.5156 8.89217 34.7165 9.06646 35.8615 9.44077C36.7117 9.69203 37.4432 10.2407 37.9225 10.9865C38.3867 11.8436 38.6093 12.8106 38.5666 13.7843C38.5989 14.6687 38.3753 15.5436 37.9225 16.3039C37.4502 17.0263 36.7502 17.5703 35.9336 17.8497C34.7507 18.2289 33.5118 18.4031 32.2702 18.3649H27.5092L27.4938 8.92552ZM38.886 32.2355C38.4878 32.9639 37.8716 33.5494 37.1238 33.9101C36.1134 34.3648 35.0105 34.5766 33.9035 34.5284H27.4938V24.7643C28.7458 24.7643 36.5416 24.9756 37.2836 25.4032C38.0104 25.7899 38.5832 26.4135 38.9066 27.1706C39.2742 28.0255 39.45 28.9506 39.4219 29.8808C39.438 30.6976 39.254 31.506 38.886 32.2355V32.2355Z" fill="#151D2B"/>
<path d="M14.0354 0.228027H0V42.4786H14.0354V0.228027Z" fill="url(#paint0_linear_140_2394)"/>
<defs>
<linearGradient id="paint0_linear_140_2394" x1="15.7358" y1="34.7653" x2="-4.27144" y2="3.99452" gradientUnits="userSpaceOnUse">
<stop stop-color="#4BABF0"/>
<stop offset="0.25" stop-color="#6D65E1"/>
<stop offset="0.5" stop-color="#A556C6"/>
<stop offset="0.75" stop-color="#D84BAC"/>
<stop offset="1" stop-color="#FA765C"/>
</linearGradient>
</defs>
</svg>
