<svg width="38" height="30" viewBox="0 0 38 30" fill="none" xmlns="http://www.w3.org/2000/svg">
<path d="M5 29C3.93913 29 2.92172 28.5786 2.17157 27.8284C1.42143 27.0783 1 26.0609 1 25V5C1 3.93913 1.42143 2.92172 2.17157 2.17157C2.92172 1.42143 3.93913 1 5 1H13L17 5H25C26.0609 5 27.0783 5.42143 27.8284 6.17157C28.5786 6.92172 29 7.93913 29 9V11M5 29H33C34.0609 29 35.0783 28.5786 35.8284 27.8284C36.5786 27.0783 37 26.0609 37 25V15C37 13.9391 36.5786 12.9217 35.8284 12.1716C35.0783 11.4214 34.0609 11 33 11H13C11.9391 11 10.9217 11.4214 10.1716 12.1716C9.42143 12.9217 9 13.9391 9 15V25C9 26.0609 8.57857 27.0783 7.82843 27.8284C7.07828 28.5786 6.06087 29 5 29Z" stroke="white" stroke-width="2" stroke-linecap="round" stroke-linejoin="round"/>
</svg>
