<svg width="38" height="39" viewBox="0 0 38 39" fill="none" xmlns="http://www.w3.org/2000/svg">
<path d="M29 9.22222H33C34.0609 9.22222 35.0783 9.65536 35.8284 10.4263C36.5786 11.1973 37 12.243 37 13.3333V25.6667C37 26.757 36.5786 27.8027 35.8284 28.5737C35.0783 29.3446 34.0609 29.7778 33 29.7778H29V38L21 29.7778H13C12.4747 29.7783 11.9544 29.6722 11.4691 29.4655C10.9837 29.2588 10.543 28.9555 10.172 28.5732M10.172 28.5732L17 21.5556H25C26.0609 21.5556 27.0783 21.1224 27.8284 20.3514C28.5786 19.5805 29 18.5348 29 17.4444V5.11111C29 4.02078 28.5786 2.9751 27.8284 2.20412C27.0783 1.43313 26.0609 1 25 1H5C3.93913 1 2.92172 1.43313 2.17157 2.20412C1.42143 2.9751 1 4.02078 1 5.11111V17.4444C1 18.5348 1.42143 19.5805 2.17157 20.3514C2.92172 21.1224 3.93913 21.5556 5 21.5556H9V29.7778L10.172 28.5732Z" stroke="#D1D5DB" stroke-width="2" stroke-linecap="round" stroke-linejoin="round"/>
</svg>
