<svg width="33" height="33" viewBox="0 0 33 33" fill="none" xmlns="http://www.w3.org/2000/svg">
<path fill-rule="evenodd" clip-rule="evenodd" d="M0.447998 16.7412C0.447998 7.81404 7.68488 0.577148 16.612 0.577148C25.5392 0.577148 32.7761 7.81404 32.7761 16.7412C32.7761 25.6683 25.5392 32.9052 16.612 32.9052C7.68488 32.9052 0.447998 25.6683 0.447998 16.7412ZM8.53002 16.9104C8.53002 12.4616 12.1385 8.85314 16.5873 8.85314C21.0361 8.85314 24.6446 12.4616 24.6941 16.9104C24.6941 20.4695 22.4202 23.4848 19.2072 24.5723C18.8117 24.6217 18.6634 24.3746 18.6634 24.1768V21.9524C18.6634 21.211 18.4163 20.7167 18.1197 20.4695C19.8992 20.2718 21.7776 19.6292 21.7776 16.515C21.7776 15.6252 21.4316 14.8838 20.9373 14.34C20.9412 14.3245 20.9466 14.305 20.9531 14.2817C21.0287 14.0087 21.2483 13.2165 20.8384 12.2145C20.8384 12.2145 20.1464 12.0167 18.614 13.0548C17.9714 12.9065 17.2793 12.8076 16.5873 12.8076C15.8953 12.8076 15.2033 12.8571 14.5606 13.0548C13.0282 12.0167 12.3362 12.2145 12.3362 12.2145C11.8994 13.2824 12.1775 14.112 12.2345 14.2819L12.2374 14.2906C11.6936 14.8838 11.397 15.5758 11.397 16.4656C11.397 19.5797 13.2754 20.2718 15.055 20.4695C14.8572 20.6672 14.6101 21.0132 14.5606 21.557C14.1158 21.7547 12.9789 22.1007 12.2374 20.8649C12.2374 20.8649 11.7925 20.074 11.0016 20.0246C11.0016 20.0246 10.2107 20.0246 10.9522 20.5189C10.9522 20.5189 11.4959 20.7661 11.8419 21.7053C11.8419 21.7053 12.3362 23.2871 14.5606 22.7928V24.1768C14.5606 24.3746 14.4123 24.6217 14.0169 24.5723C10.8533 23.4848 8.53002 20.4695 8.53002 16.9104Z" fill="#1F2937"/>
</svg>
