<svg width="534" height="104" viewBox="0 0 534 104" fill="none" xmlns="http://www.w3.org/2000/svg">
<path d="M122.5 52H526" stroke="#1F222A" stroke-width="16" stroke-linecap="round"/>
<path d="M123 52H227" stroke="#D1D5DB" stroke-width="10" stroke-linecap="round"/>
<circle cx="227" cy="52" r="16" fill="#C4C4C4"/>
<path fill-rule="evenodd" clip-rule="evenodd" d="M51.9999 93.6C63.0329 93.6 73.614 89.2172 81.4155 81.4156C89.2171 73.6141 93.5999 63.033 93.5999 52C93.5999 40.967 89.2171 30.3859 81.4155 22.5844C73.614 14.7828 63.0329 10.4 51.9999 10.4C40.9669 10.4 30.3858 14.7828 22.5843 22.5844C14.7827 30.3859 10.3999 40.967 10.3999 52C10.3999 63.033 14.7827 73.6141 22.5843 81.4156C30.3858 89.2172 40.9669 93.6 51.9999 93.6ZM49.6859 37.2736C48.9028 36.7511 47.9925 36.451 47.0522 36.4053C46.1119 36.3597 45.1768 36.5701 44.3467 37.0143C43.5166 37.4584 42.8227 38.1195 42.339 38.9272C41.8552 39.7348 41.5998 40.6586 41.5999 41.6V62.4C41.5998 63.3414 41.8552 64.2652 42.339 65.0728C42.8227 65.8805 43.5166 66.5416 44.3467 66.9857C45.1768 67.4299 46.1119 67.6403 47.0522 67.5947C47.9925 67.549 48.9028 67.2489 49.6859 66.7264L65.2859 56.3264C65.9981 55.8515 66.582 55.2082 66.9859 54.4535C67.3898 53.6987 67.6011 52.856 67.6011 52C67.6011 51.144 67.3898 50.3013 66.9859 49.5465C66.582 48.7918 65.9981 48.1485 65.2859 47.6736L49.6859 37.2736Z" fill="#D1D5DB"/>
</svg>
