<svg width="57" height="79" viewBox="0 0 57 79" fill="none" xmlns="http://www.w3.org/2000/svg">
<path d="M53.7917 35.5627C53.7917 42.3313 51.1029 48.8226 46.3168 53.6087C41.5307 58.3948 35.0394 61.0836 28.2708 61.0836M28.2708 61.0836C21.5023 61.0836 15.011 58.3948 10.2249 53.6087C5.43879 48.8226 2.75 42.3313 2.75 35.5627M28.2708 61.0836V75.6669M28.2708 75.6669H13.6875M28.2708 75.6669H42.8542M28.2708 46.5002C25.37 46.5002 22.588 45.3479 20.5369 43.2967C18.4857 41.2455 17.3333 38.4636 17.3333 35.5627V13.6877C17.3333 10.7869 18.4857 8.00494 20.5369 5.95376C22.588 3.90258 25.37 2.75024 28.2708 2.75024C31.1716 2.75024 33.9536 3.90258 36.0048 5.95376C38.056 8.00494 39.2083 10.7869 39.2083 13.6877V35.5627C39.2083 38.4636 38.056 41.2455 36.0048 43.2967C33.9536 45.3479 31.1716 46.5002 28.2708 46.5002Z" stroke="white" stroke-width="5" stroke-linecap="round" stroke-linejoin="round"/>
</svg>
