<svg width="33" height="33" viewBox="0 0 33 33" fill="none" xmlns="http://www.w3.org/2000/svg">
<path fill-rule="evenodd" clip-rule="evenodd" d="M16.8359 32.9052C7.90876 32.9052 0.671875 25.6683 0.671875 16.7412C0.671875 7.81404 7.90876 0.577148 16.8359 0.577148C25.7631 0.577148 33 7.81404 33 16.7412C33 25.6683 25.7631 32.9052 16.8359 32.9052ZM17.5349 12.7076C16.0872 13.3098 13.1938 14.5561 8.85483 16.4465C8.15025 16.7267 7.78116 17.0008 7.74756 17.2688C7.69077 17.7218 8.25801 17.9001 9.03044 18.143C9.13551 18.1761 9.24437 18.2103 9.35598 18.2466C10.1159 18.4936 11.1382 18.7826 11.6696 18.7941C12.1517 18.8045 12.6897 18.6058 13.2838 18.1979C17.3378 15.4613 19.4305 14.0781 19.5619 14.0482C19.6546 14.0272 19.7831 14.0007 19.8701 14.0781C19.9571 14.1555 19.9486 14.3019 19.9393 14.3412C19.8831 14.5808 17.6565 16.6509 16.5043 17.7221C16.145 18.0561 15.8902 18.293 15.8381 18.3471C15.7215 18.4683 15.6025 18.5829 15.4882 18.6931C14.7822 19.3737 14.2528 19.8841 15.5176 20.7175C16.1254 21.1181 16.6117 21.4493 17.0969 21.7797C17.6268 22.1406 18.1554 22.5005 18.8392 22.9488C19.0134 23.063 19.1798 23.1816 19.3419 23.2971C19.9585 23.7368 20.5126 24.1317 21.197 24.0687C21.5947 24.0321 22.0056 23.6582 22.2142 22.5428C22.7073 19.9068 23.6765 14.1954 23.9005 11.8419C23.9201 11.6357 23.8954 11.3718 23.8756 11.256C23.8558 11.1402 23.8143 10.9751 23.6638 10.8529C23.4854 10.7082 23.2101 10.6777 23.087 10.6798C22.5272 10.6897 21.6683 10.9884 17.5349 12.7076Z" fill="#1F2937"/>
</svg>
