<svg width="24" height="25" viewBox="0 0 24 25" fill="none" xmlns="http://www.w3.org/2000/svg">
<path fill-rule="evenodd" clip-rule="evenodd" d="M12 24.5021C15.1826 24.5021 18.2348 23.2113 20.4853 20.9138C22.7357 18.6163 24 15.5002 24 12.251C24 9.00186 22.7357 5.88576 20.4853 3.58825C18.2348 1.29073 15.1826 0 12 0C8.8174 0 5.76516 1.29073 3.51472 3.58825C1.26428 5.88576 0 9.00186 0 12.251C0 15.5002 1.26428 18.6163 3.51472 20.9138C5.76516 23.2113 8.8174 24.5021 12 24.5021V24.5021ZM17.5605 11.1684L13.0605 6.57421C12.7776 6.29526 12.3987 6.14091 12.0054 6.14439C11.6121 6.14788 11.2359 6.30894 10.9578 6.59287C10.6797 6.8768 10.5219 7.26089 10.5185 7.66241C10.5151 8.06393 10.6663 8.45076 10.9395 8.73958L12.879 10.7197H7.5C7.10218 10.7197 6.72064 10.881 6.43934 11.1682C6.15804 11.4554 6 11.8449 6 12.251C6 12.6572 6.15804 13.0467 6.43934 13.3339C6.72064 13.6211 7.10218 13.7824 7.5 13.7824H12.879L10.9395 15.7625C10.7962 15.9038 10.682 16.0727 10.6033 16.2596C10.5247 16.4464 10.4834 16.6474 10.4816 16.8507C10.4799 17.054 10.5178 17.2557 10.5933 17.4439C10.6687 17.6321 10.7801 17.8031 10.9209 17.9468C11.0617 18.0906 11.2292 18.2043 11.4136 18.2813C11.5979 18.3583 11.7954 18.3971 11.9946 18.3953C12.1938 18.3936 12.3906 18.3513 12.5736 18.271C12.7566 18.1908 12.9221 18.0741 13.0605 17.9279L17.5605 13.3337C17.8417 13.0465 17.9997 12.6571 17.9997 12.251C17.9997 11.845 17.8417 11.4555 17.5605 11.1684V11.1684Z" fill="#D1D5DB"/>
</svg>
