<svg width="33" height="34" viewBox="0 0 33 34" fill="none" xmlns="http://www.w3.org/2000/svg">
<path fill-rule="evenodd" clip-rule="evenodd" d="M0.223877 16.5022C0.223877 7.38827 7.46076 0 16.3879 0C25.3151 0 32.552 7.38827 32.552 16.5022C32.552 25.616 25.3151 33.0043 16.3879 33.0043C7.46076 33.0043 0.223877 25.616 0.223877 16.5022ZM8.50794 13.7174V24.7532H11.9428V13.7174H8.50794ZM8.3059 10.2107C8.3059 11.3452 9.1141 12.1703 10.2254 12.1703C11.3367 12.1703 12.1449 11.3452 12.1449 10.2107C12.1449 9.07619 11.3367 8.25108 10.2254 8.25108C9.21512 8.25108 8.3059 9.07619 8.3059 10.2107ZM21.0351 24.7532H24.2679V17.9461C24.2679 14.5425 22.2474 13.408 20.3279 13.408C18.6105 13.408 17.3982 14.5425 17.0951 15.2645V13.7174H13.8623V24.7532H17.2971V18.8743C17.2971 17.3273 18.3074 16.5022 19.3176 16.5022C20.3279 16.5022 21.0351 17.0178 21.0351 18.7712V24.7532Z" fill="#1F2937"/>
</svg>
