<svg width="33" height="33" viewBox="0 0 33 33" fill="none" xmlns="http://www.w3.org/2000/svg">
<path fill-rule="evenodd" clip-rule="evenodd" d="M0 16.7412C0 7.81404 7.23689 0.577148 16.164 0.577148C25.0912 0.577148 32.3281 7.81404 32.3281 16.7412C32.3281 25.6683 25.0912 32.9052 16.164 32.9052C7.23689 32.9052 0 25.6683 0 16.7412ZM22.3266 12.1951C23.0338 12.094 23.6399 11.993 24.2461 11.6899C23.842 12.3971 23.2358 13.0033 22.5286 13.4074C22.7307 18.1555 19.2958 23.3078 13.1333 23.3078C11.3148 23.3078 9.5974 22.7017 8.08202 21.7924C9.79945 21.9945 11.6179 21.4894 12.8302 20.5801C11.3148 20.5801 10.1025 19.5699 9.69842 18.2566C10.2035 18.3576 10.7087 18.2566 11.2138 18.1555C9.69842 17.7514 8.58715 16.3371 8.58715 14.8217C9.09227 15.0238 9.5974 15.2258 10.1025 15.2258C8.68817 14.2156 8.18304 12.2961 9.09227 10.7807C10.8097 12.8012 13.2343 14.1145 15.962 14.2156C15.4569 12.1951 17.0733 10.1745 19.1948 10.1745C20.104 10.1745 21.0132 10.5786 21.6194 11.1848C22.4276 10.9827 23.1348 10.7807 23.7409 10.3766C23.5389 11.1848 23.0338 11.7909 22.3266 12.1951Z" fill="#d1d5db"/>
</svg>
